<?xml version="1.0" standalone="no"?>
<!DOCTYPE svg PUBLIC "-//W3C//DTD SVG 20010904//EN"
 "http://www.w3.org/TR/2001/REC-SVG-20010904/DTD/svg10.dtd">
<svg version="1.0" xmlns="http://www.w3.org/2000/svg"
 width="752.000000pt" height="752.000000pt" viewBox="0 0 752.000000 752.000000"
 preserveAspectRatio="xMidYMid meet">
<metadata>
Created by potrace 1.14, written by Peter Selinger 2001-2017
</metadata>
<g transform="translate(0.000000,752.000000) scale(0.100000,-0.100000)"
fill="#000000" stroke="none">
<path d="M2819 7366 c-4 -4 -17 -9 -29 -11 -13 -2 -48 -12 -79 -21 -31 -10
-60 -18 -66 -19 -23 -5 -171 -47 -185 -52 -8 -3 -19 -7 -25 -8 -5 -2 -37 -10
-70 -19 -33 -9 -67 -18 -75 -20 -8 -3 -49 -14 -90 -26 -41 -12 -106 -30 -145
-41 -38 -11 -77 -22 -85 -24 -8 -2 -31 -9 -50 -14 -95 -25 -297 -83 -310 -88
-8 -3 -19 -7 -25 -7 -12 -2 -77 -20 -165 -47 -53 -15 -424 -119 -480 -134 -8
-2 -37 -11 -65 -20 -27 -8 -51 -16 -52 -16 -37 1 -63 -16 -82 -52 -12 -23 -33
-62 -48 -87 -14 -25 -43 -77 -64 -116 -21 -39 -52 -95 -69 -123 -16 -29 -30
-54 -30 -57 0 -2 -11 -22 -25 -44 -14 -22 -22 -40 -18 -40 5 0 3 -4 -3 -8 -6
-4 -35 -52 -65 -107 -29 -55 -66 -122 -82 -150 -15 -27 -30 -58 -34 -67 -3
-10 -9 -18 -14 -18 -5 0 -9 -5 -9 -10 0 -6 -31 -66 -70 -135 -38 -69 -70 -129
-70 -134 0 -5 -3 -11 -7 -13 -5 -1 -15 -16 -24 -33 -38 -75 -74 -140 -79 -145
-26 -26 -30 -63 -25 -220 3 -91 8 -219 10 -285 2 -66 6 -192 10 -280 4 -88 8
-218 11 -290 7 -248 20 -615 29 -855 4 -85 8 -216 11 -290 2 -74 6 -187 8
-250 3 -63 7 -196 11 -295 3 -99 8 -232 10 -295 3 -63 7 -189 10 -280 13 -399
11 -382 47 -413 18 -16 73 -65 122 -110 49 -45 98 -90 109 -100 12 -10 46 -41
77 -70 31 -29 96 -88 145 -132 49 -44 112 -102 142 -130 29 -27 76 -70 104
-95 28 -25 78 -71 111 -103 33 -31 62 -57 63 -57 2 0 19 -15 37 -32 19 -18 76
-71 128 -118 52 -47 117 -106 144 -132 28 -25 60 -55 72 -65 34 -29 214 -194
261 -239 24 -23 43 -40 43 -38 0 2 15 -11 34 -29 85 -82 117 -108 126 -102 5
3 18 8 27 10 10 2 50 16 88 30 39 15 131 48 205 75 74 27 180 65 235 85 55 20
105 38 110 39 6 2 24 8 40 15 17 7 55 21 85 31 30 11 100 36 155 56 55 20 110
39 123 41 12 3 22 10 22 16 0 6 3 8 6 5 3 -4 42 7 87 24 45 17 132 48 192 69
61 22 119 43 130 48 11 5 43 16 70 26 28 9 59 20 70 25 11 5 38 14 60 21 22 6
45 14 50 18 6 3 15 6 20 7 31 7 141 51 147 59 4 6 8 7 8 3 0 -3 24 3 53 14 28
11 63 23 77 28 14 4 126 45 250 90 124 45 288 104 365 131 77 28 149 54 160
59 11 5 62 23 113 41 51 17 95 36 98 41 3 4 9 6 14 3 4 -3 21 2 36 10 16 8 35
15 42 15 7 0 20 4 30 9 9 5 64 26 122 46 58 20 119 43 137 51 17 8 35 14 40
14 4 0 44 14 88 31 44 16 87 32 95 34 15 4 170 59 200 72 8 3 20 7 25 9 27 8
164 57 190 68 17 7 59 23 95 36 36 12 72 25 80 28 8 3 17 6 20 7 3 1 12 4 20
8 8 3 74 27 145 52 72 26 137 49 145 52 8 4 17 7 20 8 18 6 52 19 95 36 28 10
54 19 59 19 4 0 22 6 39 14 41 18 69 28 84 32 7 1 88 30 179 64 92 34 172 63
178 65 6 1 25 7 41 14 17 6 50 19 75 27 25 9 53 20 62 25 10 5 22 9 27 9 5 0
22 5 38 12 15 6 30 12 33 13 3 0 21 6 41 13 35 12 35 13 36 70 0 54 9 526 18
1045 2 131 6 241 8 245 3 4 1 16 -3 27 -4 11 -3 30 1 43 7 17 6 21 -3 16 -7
-5 -8 -3 -3 6 4 7 9 99 11 204 2 185 10 667 19 1126 12 622 14 856 7 866 -4 6
-79 60 -167 119 -88 60 -161 113 -163 117 -2 4 -9 8 -16 8 -6 0 -27 13 -46 30
-19 16 -39 29 -45 30 -9 0 -22 9 -80 58 -6 5 -15 11 -20 13 -11 4 -223 147
-240 161 -20 17 -200 138 -215 145 -8 4 -17 9 -20 13 -3 4 -61 44 -130 91 -69
46 -126 87 -128 92 -2 4 -8 7 -13 7 -9 0 -58 32 -85 55 -6 6 -76 53 -154 105
-78 52 -147 100 -154 105 -6 6 -56 40 -111 77 -106 70 -108 71 -275 84 -25 2
-72 6 -105 8 -33 3 -80 8 -105 11 -25 3 -67 8 -95 10 -84 8 -158 15 -199 20
-21 2 -67 6 -102 9 -34 3 -82 8 -106 10 -24 3 -72 8 -108 11 -36 4 -83 8 -105
11 -22 2 -62 6 -90 8 -63 6 -179 17 -225 21 -19 2 -64 7 -100 11 -89 9 -115
11 -190 18 -77 7 -138 13 -200 20 -25 3 -76 8 -115 11 -38 4 -83 8 -100 10
-16 2 -61 6 -100 9 -38 4 -86 8 -105 11 -19 2 -60 7 -90 9 -30 3 -80 8 -110
11 -30 3 -75 7 -100 10 -25 2 -74 7 -110 10 -36 4 -68 4 -71 1z"/>
</g>
</svg>
