<?xml version="1.0" encoding="utf-8"?>
<!-- Generator: Adobe Illustrator 27.2.0, SVG Export Plug-In . SVG Version: 6.00 Build 0)  -->
<svg version="1.1" id="Ebene_1" xmlns="http://www.w3.org/2000/svg" xmlns:xlink="http://www.w3.org/1999/xlink" x="0px" y="0px"
	 viewBox="0 0 92 92.1" style="enable-background:new 0 0 92 92.1;" xml:space="preserve">
<style type="text/css">
	.st0{fill:none;stroke:#2D405C;stroke-width:2;stroke-linecap:round;stroke-linejoin:round;stroke-miterlimit:10;}
</style>
<g>
	<g>
		<line class="st0" x1="49" y1="55.6" x2="48.2" y2="55.6"/>
		<path class="st0" d="M68,75.9c2.7,3.2-1.4,8.6-5.4,5.9l-13-10.1"/>
		<path class="st0" d="M59.9,79.7c4.1,2.9-0.5,9.6-4.6,6.7"/>
		<path class="st0" d="M12.7,64.2c1.9,2.1,3.2,4,5.8,4.9"/>
		<path class="st0" d="M47.3,80.8l5.6,4c3.7,2.6-0.2,8.3-4,5.7l-4.7-3.2"/>
		<path class="st0" d="M48.7,43.3c-4.5-1.2-9.5,0.2-13.7,1.6c-1.6,0.5-3.2,1.2-4.4,1.6l0,0c-1.3,0.4-2.2,0.7-3.1,0.8
			c-2.5,0.2-4.7-0.6-5.9-1.3"/>
		<polygon class="st0" points="22.9,43.3 21.5,46.1 12.7,64.2 11.3,67.3 1,62.3 12.5,38.2 20.7,42.3 		"/>
		<polygon class="st0" points="91,62.3 80.7,67.3 71.1,47.2 69.1,43.3 71.3,42.3 79.5,38.2 		"/>
		<path class="st0" d="M29.3,81.3c-3.7,4.7-10-0.4-6.3-5l6.3-7.9c3.3-4.1,9.5,0.9,6.3,5L29.3,81.3z"/>
		<path class="st0" d="M24.3,74.6c-3.6,4.5-9.7-0.4-6.1-4.9l3.3-4.3c3.2-4,9.4,1,6.2,5"/>
		<path class="st0" d="M35,74.1c3.1-4,9.5,1.1,6.3,5l-4.5,5.6l-0.9,1.2c-3.6,4.4-9.8-0.5-6.2-5"/>
		<path class="st0" d="M41,79.5c3-3.7,8.6,1,5.7,4.8l-4.1,5c-3.3,4.1-9.1-0.5-5.8-4.7"/>
		<path class="st0" d="M72.8,69.3c2.4-0.1,5-1.6,7-3.9"/>
		<path class="st0" d="M54.5,65.7L68,75.9l0,0l1.9,1.4c4.4,3.1,9.1-3.7,4.7-6.8l-1.1-0.8l-0.6-0.4L54.5,55.5
			c-1.5,1.3-3.4,1.2-5.4,0.2c-0.2-0.1-0.4-0.2-0.5-0.4c-0.1,0.1-0.2,0.2-0.2,0.4c-3.4,4.8-7.6,9.1-13.3,4.8l0,0l3.9-7.2
			c2-4.1,4.6-8,9.7-9.9c1.5-0.5,3.3-1,5.4-1.1c3.5-0.3,7.8,3.2,11.9,4.8c1.8,0.7,3.7,0.2,5.1,0.3"/>
		<line class="st0" x1="55.2" y1="86.4" x2="53.2" y2="84.9"/>
	</g>
	<g>
		<g>
			<path class="st0" d="M23.2,37.4c0-12.6,10.2-22.8,22.8-22.8s22.8,10.2,22.8,22.8"/>
		</g>
	</g>
	<g>
		<g>
			<path class="st0" d="M37.1,37.4c0-5,4-8.9,8.9-8.9s8.9,4,8.9,8.9"/>
		</g>
	</g>
	<path class="st0" d="M77.8,31.9L77.8,31.9L77.8,31.9c-0.8-2.9,0.5-5.9,3-7.3c1-0.5,0.8-1.3,0.6-1.6c-0.4-0.8-2.2-3.8-2.6-4.5
		c-0.2-0.4-0.7-0.9-1.7-0.3c-2.5,1.4-5.7,1.1-7.8-1.1l0,0l0,0c-2.2-2.2-2.4-5.3-1.1-7.8c0.5-0.9,0.1-1.4-0.3-1.7
		c-0.7-0.5-3.8-2.2-4.5-2.6c-0.3-0.1-1-0.4-1.5,0.6c-1.4,2.4-4.4,3.8-7.3,3l0,0c-2.9-0.8-4.8-3.4-4.9-6.2c0-1.1-0.7-1.3-1.1-1.4
		c-0.9-0.1-4.3-0.1-5.2,0c-0.4,0-1.2,0.2-1.1,1.4c0,2.9-1.9,5.5-4.9,6.2l0,0l0,0c-2.9,0.8-5.9-0.5-7.3-3c-0.5-1-1.3-0.7-1.6-0.5
		c-0.8,0.4-3.8,2.2-4.5,2.6c-0.4,0.2-0.9,0.7-0.3,1.7c1.4,2.5,1.1,5.7-1.1,7.8l0,0l0,0c-2.2,2.2-5.3,2.4-7.8,1.1
		c-0.9-0.5-1.4-0.1-1.7,0.3c-0.4,0.7-2.2,3.8-2.6,4.5c-0.2,0.4-0.4,1.1,0.6,1.6c2.4,1.4,3.8,4.4,3,7.3l0,0l0,0"/>
</g>
</svg>
