<?xml version="1.0" encoding="utf-8"?>
<!-- Generator: Adobe Illustrator 27.2.0, SVG Export Plug-In . SVG Version: 6.00 Build 0)  -->
<svg version="1.1" id="Ebene_1" xmlns="http://www.w3.org/2000/svg" xmlns:xlink="http://www.w3.org/1999/xlink" x="0px" y="0px"
	 viewBox="0 0 92 92" style="enable-background:new 0 0 92 92;" xml:space="preserve">
<style type="text/css">
	.st0{fill:none;stroke:#2D405C;stroke-width:2;stroke-linecap:round;stroke-linejoin:round;stroke-miterlimit:10;}
</style>
<g>
	<polyline class="st0" points="91,83.2 91,91 1,91 1,83.2 	"/>
	<path class="st0" d="M55,37c3.8,0,6.8,3.1,6.8,6.8c3.8,0,6.8,3.1,6.8,6.8c3.8,0,6.8,3.1,6.8,6.8"/>
	<line class="st0" x1="64.5" y1="57.5" x2="55" y2="48"/>
	<polyline class="st0" points="90.9,1 54.9,37 54.9,57.5 75.5,57.5 90.9,42.1 	"/>
	<line class="st0" x1="68.6" y1="37" x2="91" y2="14.7"/>
	<line class="st0" x1="75.5" y1="43.9" x2="90.8" y2="28.5"/>
	<path class="st0" d="M45.3,69c-5.4,0-9.8-4.4-9.8-9.8c0,5.4-4.4,9.8-9.9,9.8c-5.4,0-15.7-7.1-16-30.5l0,0c0-8.5,3.9-15.4,8.6-15.4
		s8.4,6.9,8.6,15.4C26.4,62,16.2,69,10.8,69S1,64.6,1,59.1"/>
</g>
</svg>
