<?xml version="1.0" encoding="utf-8"?>
<!-- Generator: Adobe Illustrator 27.2.0, SVG Export Plug-In . SVG Version: 6.00 Build 0)  -->
<svg version="1.1" id="Ebene_1" xmlns="http://www.w3.org/2000/svg" xmlns:xlink="http://www.w3.org/1999/xlink" x="0px" y="0px"
	 viewBox="0 0 92 92" style="enable-background:new 0 0 92 92;" xml:space="preserve">
<style type="text/css">
	.st0{fill:none;stroke:#2D405C;stroke-width:2;stroke-miterlimit:10;}
</style>
<g>
	<g>
		<polygon class="st0" points="62.4,1 29.6,1 29.6,20.6 38.3,29.3 53.7,29.3 62.4,20.6 		"/>
		<polygon class="st0" points="51.2,57 51.2,29.3 40.8,29.3 40.8,57 46,62.2 		"/>
		<line class="st0" x1="40.8" y1="53.6" x2="51.2" y2="48.7"/>
		<line class="st0" x1="40.8" y1="45.7" x2="51.2" y2="40.9"/>
		<line class="st0" x1="40.8" y1="37.9" x2="51.2" y2="33.1"/>
		<polygon class="st0" points="91,70.9 54.4,70.9 54.4,75.2 46,83.6 37.6,75.2 37.6,70.9 1,70.9 1,91 91,91 		"/>
		<line class="st0" x1="37.5" y1="20.2" x2="54.5" y2="20.2"/>
		<line class="st0" x1="29.6" y1="12.9" x2="62.4" y2="12.9"/>
		<g>
			<g>
				<line class="st0" x1="30.8" y1="63.2" x2="20.2" y2="60.8"/>
				<line class="st0" x1="33.1" y1="57.3" x2="22.3" y2="48.7"/>
			</g>
			<g>
				<line class="st0" x1="61.2" y1="63.2" x2="71.8" y2="60.8"/>
				<line class="st0" x1="58.9" y1="57.3" x2="69.7" y2="48.7"/>
			</g>
		</g>
	</g>
	<polyline class="st0" points="1,15.8 1,1 15.8,1 	"/>
	<polyline class="st0" points="91,15.8 91,1 76.2,1 	"/>
</g>
</svg>
