<?xml version="1.0" encoding="utf-8"?>
<!-- Generator: Adobe Illustrator 27.2.0, SVG Export Plug-In . SVG Version: 6.00 Build 0)  -->
<svg version="1.1" id="Ebene_1" xmlns="http://www.w3.org/2000/svg" xmlns:xlink="http://www.w3.org/1999/xlink" x="0px" y="0px"
	 viewBox="0 0 92 92" style="enable-background:new 0 0 92 92;" xml:space="preserve">
<style type="text/css">
	.st0{fill:none;stroke:#2D405C;stroke-width:2;stroke-linecap:round;stroke-linejoin:round;stroke-miterlimit:10;}
</style>
<g>
	<polygon class="st0" points="37.1,68.4 37.1,83.8 41.7,88 50.3,88 54.9,83.8 54.9,68.4 	"/>
	<line class="st0" x1="35.4" y1="74.3" x2="56.6" y2="74.3"/>
	<line class="st0" x1="35.4" y1="80.1" x2="56.6" y2="80.1"/>
	<g>
		<path class="st0" d="M33.2,39.8c0-7.1,5.8-12.9,12.8-12.9"/>
		<path class="st0" d="M46,18.5L46,18.5L46,18.5L46,18.5c-11.6,0-21.1,9.5-21.1,21.3c0,11.1,11.9,19,12.1,28.6H46l0,0h8.9
			c0.3-9.6,12.1-17.6,12.1-28.6C67.1,28,57.6,18.5,46,18.5z"/>
	</g>
	<path class="st0" d="M61.4,65.3l6.1,3c2.5-2,4.8-4.2,6.7-6.8l-3-6.3c0.7-1.3,1.4-2.6,2-4c0.5-1.4,1.1-2.9,1.3-4.3l6.6-2.3
		c0.2-1.5,0.3-3.1,0.3-4.8s-0.1-3.2-0.3-4.8l-6.6-2.3c-0.4-1.4-0.8-2.9-1.3-4.3c-0.5-1.4-1.3-2.8-2-4.1l3-6.3
		c-1.9-2.5-4.1-4.8-6.7-6.8l-6.2,3.1c-1.3-0.8-2.6-1.4-4-2.1c-1.4-0.5-2.8-1.1-4.2-1.4l-2.3-6.7c-1.5-0.2-3.2-0.4-4.7-0.4
		c-1.6,0-3.2,0.1-4.7,0.4L39,10.9c-1.4,0.4-2.8,0.8-4.2,1.4c-1.3,0.5-2.7,1.3-4,2.1l-6.2-3.1c-2.5,2-4.8,4.2-6.7,6.8l3,6.3
		c-0.7,1.3-1.4,2.6-2,4.1c-0.5,1.4-1.1,2.9-1.4,4.3L10.9,35c-0.2,1.5-0.3,3.1-0.3,4.8s0.1,3.2,0.3,4.8l6.6,2.3
		c0.4,1.4,0.8,2.9,1.4,4.3s1.3,2.8,2,4l-3,6.3c1.9,2.5,4.1,4.8,6.7,6.7l6.1-3"/>
</g>
<g>
	<polyline class="st0" points="1,15.8 1,1 15.8,1 	"/>
	<polyline class="st0" points="91,15.8 91,1 76.2,1 	"/>
	<polyline class="st0" points="91,76.2 91,91 76.2,91 	"/>
	<polyline class="st0" points="1,76.2 1,91 15.8,91 	"/>
</g>
</svg>
