<?xml version="1.0" encoding="utf-8"?>
<!-- Generator: Adobe Illustrator 27.2.0, SVG Export Plug-In . SVG Version: 6.00 Build 0)  -->
<svg version="1.1" id="Ebene_1" xmlns="http://www.w3.org/2000/svg" xmlns:xlink="http://www.w3.org/1999/xlink" x="0px" y="0px"
	 viewBox="0 0 92 92" style="enable-background:new 0 0 92 92;" xml:space="preserve">
<style type="text/css">
	.st0{fill:none;stroke:#2D405C;stroke-width:2;stroke-linecap:round;stroke-linejoin:round;stroke-miterlimit:10;}
	.st1{fill:none;stroke:#2D405C;stroke-width:2;stroke-linecap:round;stroke-linejoin:round;stroke-miterlimit:9.9999;}
</style>
<g>
	<polyline class="st0" points="91,91 1,91 1,1 	"/>
	<ellipse class="st1" cx="44.3" cy="57.6" rx="18.4" ry="18.4"/>
	<path class="st0" d="M27.5,91l10.9-15.9c-3.2-1.1-6.1-3.1-8.2-5.6L15.5,91"/>
	<path class="st0" d="M33,57.6c0-6.2,5-11.3,11.3-11.3"/>
	<g>
		<polyline class="st0" points="13.7,82.6 13.7,24.8 26,24.8 26,41.1 		"/>
		<polyline class="st0" points="82.9,91 82.9,1 70.6,1 70.6,91 		"/>
	</g>
	<polyline class="st0" points="42.1,33 42.1,11.3 54.5,11.3 54.5,35.1 	"/>
	<line class="st0" x1="55.3" y1="79.8" x2="55.3" y2="91"/>
	<line class="st0" x1="41.1" y1="82.1" x2="41.1" y2="91"/>
</g>
</svg>
