<?xml version="1.0" encoding="utf-8"?>
<!-- Generator: Adobe Illustrator 27.2.0, SVG Export Plug-In . SVG Version: 6.00 Build 0)  -->
<svg version="1.1" id="Ebene_1" xmlns="http://www.w3.org/2000/svg" xmlns:xlink="http://www.w3.org/1999/xlink" x="0px" y="0px"
	 viewBox="0 0 92 92" style="enable-background:new 0 0 92 92;" xml:space="preserve">
<style type="text/css">
	.st0{fill:none;stroke:#2D405C;stroke-width:2;stroke-linecap:round;stroke-linejoin:round;stroke-miterlimit:10;}
</style>
<g>
	<rect x="1" y="1" class="st0" width="22.2" height="22.2"/>
	<rect x="1" y="34.8" class="st0" width="22.2" height="22.2"/>
	<rect x="1" y="68.8" class="st0" width="22.2" height="22.2"/>
	<polyline class="st0" points="17.2,42 12.2,50 7,42 	"/>
	<polyline class="st0" points="17.2,75.9 12.2,83.9 7,75.9 	"/>
	<line class="st0" x1="12.2" y1="23.2" x2="12.2" y2="34.8"/>
	<line class="st0" x1="12.2" y1="57.1" x2="12.2" y2="68.8"/>
	<path class="st0" d="M86.1,1c-1.8,0-38.2,0-40,0c-2.7,0-4.9,2.2-4.9,4.9s2.2,4.9,4.9,4.9c1.8,0,38.2,0,40,0c2.7,0,4.9-2.2,4.9-4.9
		S88.8,1,86.1,1z"/>
	<path class="st0" d="M86.1,81.3c-1.8,0-38.2,0-40,0c-2.7,0-4.9,2.2-4.9,4.9s2.2,4.9,4.9,4.9c1.8,0,38.2,0,40,0
		c2.7,0,4.9-2.2,4.9-4.9S88.8,81.3,86.1,81.3z"/>
	<path class="st0" d="M46.9,10.7c0,0,0,3.2,0,11C46.9,39.1,66.2,46,66.2,46l0,0l0,0l0,0l0,0c0,0,19.3-6.9,19.3-24.3c0-7.7,0-11,0-11
		H46.9z"/>
	<line class="st0" x1="47.1" y1="24.9" x2="85.2" y2="24.9"/>
	<path class="st0" d="M66.2,81.3h19.3c0,0,0-3.2,0-11C85.4,52.9,66.2,46,66.2,46l0,0l0,0l0,0l0,0c0,0-19.3,6.9-19.3,24.3
		c0,7.7,0,11,0,11H66.2z"/>
	<polyline class="st0" points="85.2,67.1 72.6,67.1 66.2,61.5 59.8,67.1 47.1,67.1 	"/>
</g>
</svg>
