<?xml version="1.0" encoding="utf-8"?>
<!-- Generator: Adobe Illustrator 27.9.0, SVG Export Plug-In . SVG Version: 6.00 Build 0)  -->
<svg version="1.1" id="Ebene_1" xmlns="http://www.w3.org/2000/svg" xmlns:xlink="http://www.w3.org/1999/xlink" x="0px" y="0px"
	 viewBox="0 0 92 92" style="enable-background:new 0 0 92 92;" xml:space="preserve">
<style type="text/css">
	.st0{fill:none;stroke:#2D405C;stroke-width:2;stroke-linecap:round;stroke-linejoin:round;stroke-miterlimit:10;}
</style>
<g>
	<path class="st0" d="M73.3,55.6H1V91h72.3C83.1,91,91,83.1,91,73.3C91,63.5,83.1,55.6,73.3,55.6z"/>
	<ellipse transform="matrix(0.2737 -0.9618 0.9618 0.2737 -17.262 123.7122)" class="st0" cx="73.3" cy="73.3" rx="8.7" ry="8.7"/>
	<line class="st0" x1="9.9" y1="73.3" x2="56.3" y2="73.3"/>
	<g>
		<circle class="st0" cx="13.1" cy="65.6" r="0.9"/>
		<circle class="st0" cx="23.1" cy="65.6" r="0.9"/>
		<path class="st0" d="M34.1,65.6c0,0.5-0.4,0.9-0.9,0.9s-0.9-0.4-0.9-0.9s0.4-0.9,0.9-0.9S34.1,65,34.1,65.6z"/>
		<circle class="st0" cx="43.1" cy="65.6" r="0.9"/>
		<path class="st0" d="M54.1,65.6c0,0.5-0.4,0.9-0.9,0.9c-0.5,0-0.9-0.4-0.9-0.9s0.4-0.9,0.9-0.9C53.6,64.6,54.1,65,54.1,65.6z"/>
	</g>
	<g>
		<circle class="st0" cx="13.1" cy="81" r="0.9"/>
		<circle class="st0" cx="23.1" cy="81" r="0.9"/>
		<path class="st0" d="M34.1,81c0,0.5-0.4,0.9-0.9,0.9s-0.9-0.4-0.9-0.9s0.4-0.9,0.9-0.9S34.1,80.5,34.1,81z"/>
		<circle class="st0" cx="43.1" cy="81" r="0.9"/>
		<path class="st0" d="M54.1,81c0,0.5-0.4,0.9-0.9,0.9c-0.5,0-0.9-0.4-0.9-0.9s0.4-0.9,0.9-0.9C53.6,80.1,54.1,80.5,54.1,81z"/>
	</g>
	<path class="st0" d="M32,1H1v54.6h22.1V33.2L32,22.3c5.9,0,10.7-4.8,10.7-10.7S37.9,1,32,1z"/>
	<path class="st0" d="M40.9,5.8c1.1,1.7,1.8,3.7,1.8,5.9c0,2.2-0.7,4.2-1.8,5.9h22.7V5.8H40.9z"/>
	<polygon class="st0" points="45.9,17.6 45.9,23.3 50.1,28.3 50.1,33.5 59.4,33.5 59.4,28.3 63.7,23.3 63.7,17.6 	"/>
	<path class="st0" d="M33,11.7c0,0.5-0.4,0.9-0.9,0.9c-0.5,0-0.9-0.4-0.9-0.9c0-0.5,0.4-0.9,0.9-0.9C32.6,10.7,33,11.1,33,11.7z"/>
</g>
</svg>
