<?xml version="1.0" encoding="utf-8"?>
<!-- Generator: Adobe Illustrator 27.9.0, SVG Export Plug-In . SVG Version: 6.00 Build 0)  -->
<svg version="1.1" id="Ebene_1" xmlns="http://www.w3.org/2000/svg" xmlns:xlink="http://www.w3.org/1999/xlink" x="0px" y="0px"
	 viewBox="0 0 92 92" style="enable-background:new 0 0 92 92;" xml:space="preserve">
<style type="text/css">
	.st0{fill:none;stroke:#2D405C;stroke-width:2;stroke-linecap:round;stroke-linejoin:round;stroke-miterlimit:10;}
</style>
<g>
	<path class="st0" d="M10.1,35.4c-9.5,0-9.1,4.1-9.1,8.5c2.3,0,11.7,0,11.7,0v31.3h21.9V50.5l24.3-7.3v-7.8H10.1z"/>
	<g>
		<polyline class="st0" points="30.8,91 30.8,75.1 16.4,75.1 16.4,91 		"/>
		<path class="st0" d="M39.4,1H16.1L11,7.6c0,0-7.7,0-10,0c0,4.4-0.4,8.5,9.1,8.5c1.3,0-0.4,0,6.4,0v19.3h14.4V16.1
			c17,0,28.1,0,28.1,0V8.3L39.4,1z"/>
	</g>
	<g>
		<line class="st0" x1="20.3" y1="49.4" x2="27.5" y2="49.4"/>
		<line class="st0" x1="20.3" y1="57.1" x2="27.5" y2="57.1"/>
		<line class="st0" x1="20.3" y1="64.9" x2="27.5" y2="64.9"/>
	</g>
	<g>
		<line class="st0" x1="67.8" y1="16.1" x2="75.3" y2="16.1"/>
		<line class="st0" x1="83.5" y1="16.1" x2="91" y2="16.1"/>
	</g>
	<g>
		<line class="st0" x1="67.8" y1="35.4" x2="75.3" y2="35.4"/>
		<line class="st0" x1="83.5" y1="35.4" x2="91" y2="35.4"/>
	</g>
	<g>
		<path class="st0" d="M68.8,91h3.9l2.6-5.8c0.8-0.3,1.7-0.6,2.4-1l6,2.3l2.8-2.8l-2.3-6c0.4-0.8,0.7-1.6,1-2.4l5.8-2.6v-3.9
			l-5.8-2.6c-0.3-0.8-0.6-1.7-1-2.4l2.3-6L83.7,55l-6,2.3c-0.8-0.4-1.6-0.7-2.4-1l-2.6-5.8h-3.9l-2.6,5.8c-0.8,0.3-1.7,0.6-2.4,1
			L57.8,55L55,57.8l2.3,6c-0.4,0.8-0.7,1.6-1,2.4l-5.8,2.6v3.9l5.8,2.6c0.3,0.8,0.6,1.7,1,2.4L55,83.7l2.8,2.8l6-2.3
			c0.8,0.4,1.6,0.7,2.4,1L68.8,91z"/>
		<path class="st0" d="M70.7,77.8c-3.9,0-7-3.1-7-7c0-3.9,3.1-7,7-7c3.9,0,7,3.1,7,7C77.7,74.6,74.6,77.8,70.7,77.8z"/>
	</g>
</g>
</svg>
