<?xml version="1.0" encoding="utf-8"?>
<!-- Generator: Adobe Illustrator 27.9.0, SVG Export Plug-In . SVG Version: 6.00 Build 0)  -->
<svg version="1.1" id="Ebene_1" xmlns="http://www.w3.org/2000/svg" xmlns:xlink="http://www.w3.org/1999/xlink" x="0px" y="0px"
	 viewBox="0 0 92 92" style="enable-background:new 0 0 92 92;" xml:space="preserve">
<style type="text/css">
	.st0{fill:none;stroke:#2D405C;stroke-width:2;stroke-linecap:round;stroke-linejoin:round;stroke-miterlimit:10;}
</style>
<g>
	<g>
		<g>
			<path class="st0" d="M65.5,57.8c-2.1,0-4.3-0.8-6-2.4c-3.3-3.3-3.3-8.6,0-11.9c3.2-3.2,16.4-5.4,17-5.5l0.5-0.1L77,38.4
				c-0.1,0.5-2.3,13.8-5.5,17l0,0C69.8,56.9,67.7,57.8,65.5,57.8z"/>
			<line class="st0" x1="77.1" y1="37.8" x2="55.7" y2="59.6"/>
		</g>
		<path class="st0" d="M91,48.6c0,2.5-3.2,4.5-3.9,6.8c-0.8,2.4,0.6,5.8-0.8,7.8c-1.4,2-5.2,1.7-7.1,3.2c-2,1.4-2.9,5.1-5.2,5.8
			c-2.3,0.7-5.1-1.6-7.6-1.6c-2.5,0-5.4,2.4-7.7,1.6c-2.4-0.8-3.3-4.4-5.2-5.8c-2-1.4-5.7-1.2-7.1-3.2c-1.4-2,0-5.4-0.8-7.8
			c-0.7-2.3-3.9-4.3-3.9-6.8c0-2.5,3.2-4.5,3.9-6.8c0.8-2.4-0.6-5.8,0.8-7.8c1.4-2,5.2-1.7,7.1-3.2c2-1.4,2.9-5.1,5.2-5.8
			c2.3-0.7,5.1,1.6,7.6,1.6c2.5,0,5.4-2.4,7.7-1.6c2.4,0.8,3.3,4.4,5.2,5.8c2,1.4,5.7,1.2,7.1,3.2c1.4,2,0,5.4,0.8,7.8
			C87.8,44.1,91,46.1,91,48.6z"/>
	</g>
	<g>
		<polygon class="st0" points="63.9,91 7.6,91 5.2,82.5 66.3,82.5 		"/>
		<path class="st0" d="M35.5,66.4H6.4c-3,0-5.4,2.4-5.4,5.4v10.7h69.5"/>
		<path class="st0" d="M51.7,20c0.1-1,0.2-1.9,0.2-2.8C52,8.2,44.7,1,35.8,1c-8.9,0-16.3,7.2-16.2,16.2c0.1,16.2,23,39.5-6.2,49.2"
			/>
	</g>
</g>
</svg>
